<mxfile host="Electron" agent="Mozilla/5.0 (Windows NT 10.0; Win64; x64) AppleWebKit/537.36 (KHTML, like Gecko) draw.io/26.0.16 Chrome/132.0.6834.196 Electron/34.2.0 Safari/537.36" version="26.0.16" pages="2">
  <diagram id="piDafpqhtRUU5qUU-vj8" name="Menu">
    <mxGraphModel dx="1098" dy="988" grid="1" gridSize="10" guides="1" tooltips="1" connect="1" arrows="1" fold="1" page="1" pageScale="1" pageWidth="827" pageHeight="1169" math="0" shadow="0">
      <root>
        <mxCell id="0" />
        <mxCell id="1" parent="0" />
        <mxCell id="9f-WDKsVUeG8n2rBioCC-17" value="" style="shape=mxgraph.mockup.containers.marginRect;rectMarginTop=10;strokeColor=#666666;strokeWidth=1;dashed=0;rounded=1;arcSize=5;recursiveResize=0;html=1;whiteSpace=wrap;align=left;" parent="1" vertex="1">
          <mxGeometry x="40" y="40" width="280" height="360" as="geometry" />
        </mxCell>
        <mxCell id="9f-WDKsVUeG8n2rBioCC-18" value="Suggestion 1" style="shape=rect;strokeColor=none;fillColor=#008cff;strokeWidth=1;dashed=0;rounded=1;arcSize=20;fontColor=#ffffff;fontSize=17;spacing=2;spacingTop=-2;align=left;autosize=1;spacingLeft=4;resizeWidth=0;resizeHeight=0;perimeter=none;html=1;whiteSpace=wrap;" parent="9f-WDKsVUeG8n2rBioCC-17" vertex="1">
          <mxGeometry x="5" width="120" height="30" as="geometry" />
        </mxCell>
        <mxCell id="9f-WDKsVUeG8n2rBioCC-19" value="&lt;font style=&quot;color: rgb(0, 0, 0);&quot;&gt;Keys&lt;/font&gt;" style="shape=rect;arcSize=50;strokeColor=none;fillColor=#eeeeee;rounded=1;spacingLeft=24;fontSize=13;align=center;whiteSpace=wrap;html=1;" parent="9f-WDKsVUeG8n2rBioCC-17" vertex="1">
          <mxGeometry x="10" y="50" width="170" height="32" as="geometry" />
        </mxCell>
        <mxCell id="9f-WDKsVUeG8n2rBioCC-20" value="K" style="shape=ellipse;strokeColor=none;fillColor=#009587;fontColor=#ffffff;fontSize=14;" parent="9f-WDKsVUeG8n2rBioCC-19" vertex="1">
          <mxGeometry width="32" height="32" relative="1" as="geometry" />
        </mxCell>
        <mxCell id="9f-WDKsVUeG8n2rBioCC-25" value="&lt;font style=&quot;color: rgb(0, 0, 0);&quot;&gt;Quests&lt;/font&gt;" style="shape=rect;arcSize=50;strokeColor=none;fillColor=#eeeeee;rounded=1;spacingLeft=24;fontSize=13;align=center;whiteSpace=wrap;html=1;" parent="9f-WDKsVUeG8n2rBioCC-17" vertex="1">
          <mxGeometry x="10" y="100" width="170" height="32" as="geometry" />
        </mxCell>
        <mxCell id="9f-WDKsVUeG8n2rBioCC-26" value="Q" style="shape=ellipse;strokeColor=none;fillColor=#009587;fontColor=#ffffff;fontSize=14;" parent="9f-WDKsVUeG8n2rBioCC-25" vertex="1">
          <mxGeometry width="32" height="32" relative="1" as="geometry" />
        </mxCell>
        <mxCell id="9f-WDKsVUeG8n2rBioCC-27" value="&lt;font style=&quot;color: rgb(0, 0, 0);&quot;&gt;Map&lt;/font&gt;" style="shape=rect;arcSize=50;strokeColor=none;fillColor=#eeeeee;rounded=1;spacingLeft=24;fontSize=13;align=center;whiteSpace=wrap;html=1;" parent="9f-WDKsVUeG8n2rBioCC-17" vertex="1">
          <mxGeometry x="10" y="150" width="170" height="32" as="geometry" />
        </mxCell>
        <mxCell id="9f-WDKsVUeG8n2rBioCC-28" value="M" style="shape=ellipse;strokeColor=none;fillColor=#009587;fontColor=#ffffff;fontSize=14;" parent="9f-WDKsVUeG8n2rBioCC-27" vertex="1">
          <mxGeometry width="32" height="32" relative="1" as="geometry" />
        </mxCell>
        <mxCell id="9f-WDKsVUeG8n2rBioCC-29" value="&lt;font color=&quot;#000000&quot;&gt;Settings&lt;/font&gt;" style="shape=rect;arcSize=50;strokeColor=none;fillColor=#eeeeee;rounded=1;spacingLeft=24;fontSize=13;align=center;whiteSpace=wrap;html=1;" parent="9f-WDKsVUeG8n2rBioCC-17" vertex="1">
          <mxGeometry x="10" y="200" width="170" height="32" as="geometry" />
        </mxCell>
        <mxCell id="9f-WDKsVUeG8n2rBioCC-30" value="S" style="shape=ellipse;strokeColor=none;fillColor=#009587;fontColor=#ffffff;fontSize=14;" parent="9f-WDKsVUeG8n2rBioCC-29" vertex="1">
          <mxGeometry width="32" height="32" relative="1" as="geometry" />
        </mxCell>
        <mxCell id="9f-WDKsVUeG8n2rBioCC-31" value="&lt;font style=&quot;color: rgb(0, 0, 0);&quot;&gt;Browser&lt;/font&gt;" style="shape=rect;arcSize=50;strokeColor=none;fillColor=#eeeeee;rounded=1;spacingLeft=24;fontSize=13;align=center;whiteSpace=wrap;html=1;" parent="9f-WDKsVUeG8n2rBioCC-17" vertex="1">
          <mxGeometry x="10" y="250" width="170" height="32" as="geometry" />
        </mxCell>
        <mxCell id="9f-WDKsVUeG8n2rBioCC-32" value="B" style="shape=ellipse;strokeColor=none;fillColor=#009587;fontColor=#ffffff;fontSize=14;" parent="9f-WDKsVUeG8n2rBioCC-31" vertex="1">
          <mxGeometry width="32" height="32" relative="1" as="geometry" />
        </mxCell>
        <mxCell id="9f-WDKsVUeG8n2rBioCC-33" value="- Each with its own color.&lt;div&gt;- Collapsed untill hover-over.&lt;/div&gt;&lt;div&gt;- Either Letter or icon in the circle.&lt;/div&gt;" style="text;html=1;align=left;verticalAlign=top;whiteSpace=wrap;rounded=0;" parent="9f-WDKsVUeG8n2rBioCC-17" vertex="1">
          <mxGeometry x="10" y="300" width="260" height="50" as="geometry" />
        </mxCell>
        <mxCell id="9f-WDKsVUeG8n2rBioCC-48" value="" style="shape=mxgraph.mockup.containers.marginRect;rectMarginTop=10;strokeColor=#666666;strokeWidth=1;dashed=0;rounded=1;arcSize=5;recursiveResize=0;html=1;whiteSpace=wrap;" parent="1" vertex="1">
          <mxGeometry x="400" y="40" width="280" height="360" as="geometry" />
        </mxCell>
        <mxCell id="9f-WDKsVUeG8n2rBioCC-49" value="Suggestion 2" style="shape=rect;strokeColor=none;fillColor=#008cff;strokeWidth=1;dashed=0;rounded=1;arcSize=20;fontColor=#ffffff;fontSize=17;spacing=2;spacingTop=-2;align=left;autosize=1;spacingLeft=4;resizeWidth=0;resizeHeight=0;perimeter=none;html=1;whiteSpace=wrap;" parent="9f-WDKsVUeG8n2rBioCC-48" vertex="1">
          <mxGeometry x="5" width="120" height="30" as="geometry" />
        </mxCell>
        <mxCell id="9f-WDKsVUeG8n2rBioCC-50" value="" style="shape=ellipse;dashed=0;strokeColor=none;shadow=1;fontSize=13;align=center;verticalAlign=top;labelPosition=center;verticalLabelPosition=bottom;html=1;aspect=fixed;fillColor=#009587;" parent="9f-WDKsVUeG8n2rBioCC-48" vertex="1">
          <mxGeometry x="14" y="50" width="56" height="56" as="geometry" />
        </mxCell>
        <mxCell id="9f-WDKsVUeG8n2rBioCC-51" value="" style="dashed=0;html=1;shape=mxgraph.gmdl.star;strokeColor=none;fillColor=#737373;shadow=0;sketch=0;html=1;labelPosition=center;verticalLabelPosition=bottom;align=center;verticalAlign=top;" parent="9f-WDKsVUeG8n2rBioCC-50" vertex="1">
          <mxGeometry x="18" y="18" width="20" height="20" as="geometry" />
        </mxCell>
        <mxCell id="9f-WDKsVUeG8n2rBioCC-52" value="" style="shape=ellipse;dashed=0;strokeColor=none;shadow=1;fontSize=13;align=center;verticalAlign=top;labelPosition=center;verticalLabelPosition=bottom;html=1;aspect=fixed;fillColor=#009587;" parent="9f-WDKsVUeG8n2rBioCC-48" vertex="1">
          <mxGeometry x="14" y="120" width="56" height="56" as="geometry" />
        </mxCell>
        <mxCell id="9f-WDKsVUeG8n2rBioCC-53" value="" style="dashed=0;html=1;shape=mxgraph.gmdl.star;strokeColor=none;fillColor=#737373;shadow=0;sketch=0;html=1;labelPosition=center;verticalLabelPosition=bottom;align=center;verticalAlign=top;" parent="9f-WDKsVUeG8n2rBioCC-52" vertex="1">
          <mxGeometry x="18" y="18" width="20" height="20" as="geometry" />
        </mxCell>
        <mxCell id="9f-WDKsVUeG8n2rBioCC-54" value="" style="shape=ellipse;dashed=0;strokeColor=none;shadow=1;fontSize=13;align=center;verticalAlign=top;labelPosition=center;verticalLabelPosition=bottom;html=1;aspect=fixed;fillColor=#009587;" parent="9f-WDKsVUeG8n2rBioCC-48" vertex="1">
          <mxGeometry x="14" y="190" width="56" height="56" as="geometry" />
        </mxCell>
        <mxCell id="9f-WDKsVUeG8n2rBioCC-55" value="" style="dashed=0;html=1;shape=mxgraph.gmdl.star;strokeColor=none;fillColor=#737373;shadow=0;sketch=0;html=1;labelPosition=center;verticalLabelPosition=bottom;align=center;verticalAlign=top;" parent="9f-WDKsVUeG8n2rBioCC-54" vertex="1">
          <mxGeometry x="18" y="18" width="20" height="20" as="geometry" />
        </mxCell>
        <mxCell id="9f-WDKsVUeG8n2rBioCC-56" value="- Each with its own icon." style="text;html=1;align=left;verticalAlign=top;whiteSpace=wrap;rounded=0;" parent="9f-WDKsVUeG8n2rBioCC-48" vertex="1">
          <mxGeometry x="10" y="330" width="260" height="20" as="geometry" />
        </mxCell>
        <mxCell id="9f-WDKsVUeG8n2rBioCC-58" value="" style="shape=ellipse;dashed=0;strokeColor=none;shadow=1;fontSize=13;align=center;verticalAlign=top;labelPosition=center;verticalLabelPosition=bottom;html=1;aspect=fixed;fillColor=#009587;" parent="9f-WDKsVUeG8n2rBioCC-48" vertex="1">
          <mxGeometry x="14" y="260" width="56" height="56" as="geometry" />
        </mxCell>
        <mxCell id="9f-WDKsVUeG8n2rBioCC-59" value="" style="dashed=0;html=1;shape=mxgraph.gmdl.star;strokeColor=none;fillColor=#737373;shadow=0;sketch=0;html=1;labelPosition=center;verticalLabelPosition=bottom;align=center;verticalAlign=top;" parent="9f-WDKsVUeG8n2rBioCC-58" vertex="1">
          <mxGeometry x="18" y="18" width="20" height="20" as="geometry" />
        </mxCell>
        <mxCell id="9f-WDKsVUeG8n2rBioCC-60" value="" style="shape=mxgraph.mockup.containers.marginRect;rectMarginTop=10;strokeColor=#666666;strokeWidth=1;dashed=0;rounded=1;arcSize=5;recursiveResize=0;html=1;whiteSpace=wrap;" parent="1" vertex="1">
          <mxGeometry x="40" y="480" width="280" height="360" as="geometry" />
        </mxCell>
        <mxCell id="9f-WDKsVUeG8n2rBioCC-61" value="Suggestion 3, Normal" style="shape=rect;strokeColor=none;fillColor=#008cff;strokeWidth=1;dashed=0;rounded=1;arcSize=20;fontColor=#ffffff;fontSize=17;spacing=2;spacingTop=-2;align=left;autosize=1;spacingLeft=4;resizeWidth=0;resizeHeight=0;perimeter=none;html=1;whiteSpace=wrap;" parent="9f-WDKsVUeG8n2rBioCC-60" vertex="1">
          <mxGeometry x="5" width="190" height="30" as="geometry" />
        </mxCell>
        <mxCell id="9f-WDKsVUeG8n2rBioCC-63" value="Map" style="rounded=1;whiteSpace=wrap;html=1;" parent="9f-WDKsVUeG8n2rBioCC-60" vertex="1">
          <mxGeometry x="30" y="160" width="100" height="40" as="geometry" />
        </mxCell>
        <mxCell id="9f-WDKsVUeG8n2rBioCC-78" value="Map is most likely the only tab, that will be needed in quick-access (in raid).&amp;nbsp;&lt;span style=&quot;background-color: transparent; color: light-dark(rgb(0, 0, 0), rgb(255, 255, 255));&quot;&gt;Therefor the rest can be hidden for the most part.&lt;/span&gt;" style="text;html=1;align=left;verticalAlign=top;whiteSpace=wrap;rounded=0;" parent="9f-WDKsVUeG8n2rBioCC-60" vertex="1">
          <mxGeometry x="10" y="300" width="260" height="50" as="geometry" />
        </mxCell>
        <mxCell id="9f-WDKsVUeG8n2rBioCC-64" value="" style="endArrow=classic;html=1;rounded=0;" parent="1" edge="1">
          <mxGeometry width="50" height="50" relative="1" as="geometry">
            <mxPoint x="360" y="680" as="sourcePoint" />
            <mxPoint x="440" y="680" as="targetPoint" />
          </mxGeometry>
        </mxCell>
        <mxCell id="9f-WDKsVUeG8n2rBioCC-65" value="" style="shape=mxgraph.mockup.containers.marginRect;rectMarginTop=10;strokeColor=#666666;strokeWidth=1;dashed=0;rounded=1;arcSize=5;recursiveResize=0;html=1;whiteSpace=wrap;" parent="1" vertex="1">
          <mxGeometry x="480" y="480" width="280" height="360" as="geometry" />
        </mxCell>
        <mxCell id="9f-WDKsVUeG8n2rBioCC-66" value="Suggestion 3, Unfold" style="shape=rect;strokeColor=none;fillColor=#008cff;strokeWidth=1;dashed=0;rounded=1;arcSize=20;fontColor=#ffffff;fontSize=17;spacing=2;spacingTop=-2;align=left;autosize=1;spacingLeft=4;resizeWidth=0;resizeHeight=0;perimeter=none;html=1;whiteSpace=wrap;" parent="9f-WDKsVUeG8n2rBioCC-65" vertex="1">
          <mxGeometry x="5" width="180" height="30" as="geometry" />
        </mxCell>
        <mxCell id="9f-WDKsVUeG8n2rBioCC-67" value="Map" style="rounded=1;whiteSpace=wrap;html=1;" parent="9f-WDKsVUeG8n2rBioCC-65" vertex="1">
          <mxGeometry x="30" y="160" width="100" height="40" as="geometry" />
        </mxCell>
        <mxCell id="9f-WDKsVUeG8n2rBioCC-71" value="Quests" style="rounded=1;whiteSpace=wrap;html=1;" parent="9f-WDKsVUeG8n2rBioCC-65" vertex="1">
          <mxGeometry x="30" y="104.5" width="100" height="40" as="geometry" />
        </mxCell>
        <mxCell id="9f-WDKsVUeG8n2rBioCC-73" value="Settings" style="rounded=1;whiteSpace=wrap;html=1;" parent="9f-WDKsVUeG8n2rBioCC-65" vertex="1">
          <mxGeometry x="30" y="220" width="100" height="40" as="geometry" />
        </mxCell>
        <mxCell id="9f-WDKsVUeG8n2rBioCC-74" value="Browser" style="rounded=1;whiteSpace=wrap;html=1;" parent="9f-WDKsVUeG8n2rBioCC-65" vertex="1">
          <mxGeometry x="30" y="280" width="100" height="40" as="geometry" />
        </mxCell>
        <mxCell id="9f-WDKsVUeG8n2rBioCC-75" value="" style="endArrow=classic;html=1;rounded=0;" parent="9f-WDKsVUeG8n2rBioCC-65" edge="1">
          <mxGeometry width="50" height="50" relative="1" as="geometry">
            <mxPoint x="80" y="70" as="sourcePoint" />
            <mxPoint x="200" y="70" as="targetPoint" />
          </mxGeometry>
        </mxCell>
        <mxCell id="9f-WDKsVUeG8n2rBioCC-76" value="Slides into view" style="text;html=1;align=center;verticalAlign=middle;whiteSpace=wrap;rounded=0;" parent="9f-WDKsVUeG8n2rBioCC-65" vertex="1">
          <mxGeometry x="80" y="40" width="110" height="30" as="geometry" />
        </mxCell>
        <mxCell id="9f-WDKsVUeG8n2rBioCC-72" value="Keys" style="rounded=1;whiteSpace=wrap;html=1;" parent="9f-WDKsVUeG8n2rBioCC-65" vertex="1">
          <mxGeometry x="30" y="50" width="50" height="40" as="geometry" />
        </mxCell>
        <mxCell id="9f-WDKsVUeG8n2rBioCC-77" value="" style="endArrow=none;html=1;rounded=0;exitX=0;exitY=0.5;exitDx=0;exitDy=0;entryX=0.036;entryY=0.194;entryDx=0;entryDy=0;entryPerimeter=0;" parent="9f-WDKsVUeG8n2rBioCC-65" source="9f-WDKsVUeG8n2rBioCC-72" target="9f-WDKsVUeG8n2rBioCC-65" edge="1">
          <mxGeometry width="50" height="50" relative="1" as="geometry">
            <mxPoint x="60" y="70" as="sourcePoint" />
            <mxPoint x="110" y="20" as="targetPoint" />
          </mxGeometry>
        </mxCell>
        <mxCell id="n3GXr-EBZrWfVHXAShis-1" value="" style="shape=mxgraph.mockup.containers.marginRect;rectMarginTop=10;strokeColor=#666666;strokeWidth=1;dashed=0;rounded=1;arcSize=5;recursiveResize=0;html=1;whiteSpace=wrap;" parent="1" vertex="1">
          <mxGeometry x="40" y="920" width="280" height="360" as="geometry" />
        </mxCell>
        <mxCell id="n3GXr-EBZrWfVHXAShis-2" value="Suggestion 4, &quot;In raid&quot;" style="shape=rect;strokeColor=none;fillColor=#008cff;strokeWidth=1;dashed=0;rounded=1;arcSize=20;fontColor=#ffffff;fontSize=17;spacing=2;spacingTop=-2;align=left;autosize=1;spacingLeft=4;resizeWidth=0;resizeHeight=0;perimeter=none;html=1;whiteSpace=wrap;" parent="n3GXr-EBZrWfVHXAShis-1" vertex="1">
          <mxGeometry x="5" width="190" height="30" as="geometry" />
        </mxCell>
        <mxCell id="n3GXr-EBZrWfVHXAShis-4" value="" style="shape=ellipse;dashed=0;strokeColor=none;shadow=1;fontSize=13;align=center;verticalAlign=top;labelPosition=center;verticalLabelPosition=bottom;html=1;aspect=fixed;fillColor=#009587;" parent="n3GXr-EBZrWfVHXAShis-1" vertex="1">
          <mxGeometry x="10" y="152" width="56" height="56" as="geometry" />
        </mxCell>
        <mxCell id="n3GXr-EBZrWfVHXAShis-5" value="" style="dashed=0;html=1;shape=mxgraph.gmdl.star;strokeColor=none;fillColor=#737373;shadow=0;sketch=0;html=1;labelPosition=center;verticalLabelPosition=bottom;align=center;verticalAlign=top;" parent="n3GXr-EBZrWfVHXAShis-4" vertex="1">
          <mxGeometry x="18" y="18" width="20" height="20" as="geometry" />
        </mxCell>
        <mxCell id="n3GXr-EBZrWfVHXAShis-6" value="- Switch Menu in ContextMenu (Right Click).&lt;div&gt;- Maybe also quick-access to some tabs from ContextMenu (Keys &amp;amp; Browser ?).&lt;/div&gt;" style="text;html=1;align=left;verticalAlign=top;whiteSpace=wrap;rounded=0;" parent="n3GXr-EBZrWfVHXAShis-1" vertex="1">
          <mxGeometry x="10" y="300" width="260" height="50" as="geometry" />
        </mxCell>
        <mxCell id="n3GXr-EBZrWfVHXAShis-7" value="" style="shape=mxgraph.mockup.containers.marginRect;rectMarginTop=10;strokeColor=#666666;strokeWidth=1;dashed=0;rounded=1;arcSize=5;recursiveResize=0;html=1;whiteSpace=wrap;" parent="1" vertex="1">
          <mxGeometry x="480" y="920" width="280" height="370" as="geometry" />
        </mxCell>
        <mxCell id="n3GXr-EBZrWfVHXAShis-8" value="Suggestion 4, Expanded" style="shape=rect;strokeColor=none;fillColor=#008cff;strokeWidth=1;dashed=0;rounded=1;arcSize=20;fontColor=#ffffff;fontSize=17;spacing=2;spacingTop=-2;align=left;autosize=1;spacingLeft=4;resizeWidth=0;resizeHeight=0;perimeter=none;html=1;whiteSpace=wrap;" parent="n3GXr-EBZrWfVHXAShis-7" vertex="1">
          <mxGeometry x="5" width="210" height="30" as="geometry" />
        </mxCell>
        <mxCell id="n3GXr-EBZrWfVHXAShis-9" value="Keys" style="rounded=1;whiteSpace=wrap;html=1;" parent="n3GXr-EBZrWfVHXAShis-7" vertex="1">
          <mxGeometry x="10" y="50" width="100" height="40" as="geometry" />
        </mxCell>
        <mxCell id="n3GXr-EBZrWfVHXAShis-10" value="Quests" style="rounded=1;whiteSpace=wrap;html=1;" parent="n3GXr-EBZrWfVHXAShis-7" vertex="1">
          <mxGeometry x="10" y="110" width="100" height="40" as="geometry" />
        </mxCell>
        <mxCell id="n3GXr-EBZrWfVHXAShis-11" value="Settings" style="rounded=1;whiteSpace=wrap;html=1;" parent="n3GXr-EBZrWfVHXAShis-7" vertex="1">
          <mxGeometry x="10" y="170" width="100" height="40" as="geometry" />
        </mxCell>
        <mxCell id="n3GXr-EBZrWfVHXAShis-12" value="Browser" style="rounded=1;whiteSpace=wrap;html=1;" parent="n3GXr-EBZrWfVHXAShis-7" vertex="1">
          <mxGeometry x="10" y="230" width="100" height="40" as="geometry" />
        </mxCell>
        <mxCell id="n3GXr-EBZrWfVHXAShis-13" value="Deploy" style="rounded=1;whiteSpace=wrap;html=1;" parent="n3GXr-EBZrWfVHXAShis-7" vertex="1">
          <mxGeometry x="10" y="290" width="100" height="40" as="geometry" />
        </mxCell>
        <mxCell id="n3GXr-EBZrWfVHXAShis-14" value="" style="endArrow=classic;html=1;rounded=0;" parent="1" edge="1">
          <mxGeometry width="50" height="50" relative="1" as="geometry">
            <mxPoint x="360" y="1120" as="sourcePoint" />
            <mxPoint x="440" y="1120" as="targetPoint" />
          </mxGeometry>
        </mxCell>
        <mxCell id="n3GXr-EBZrWfVHXAShis-15" value="" style="endArrow=classic;html=1;rounded=0;exitX=0.5;exitY=1;exitDx=0;exitDy=0;dashed=1;dashPattern=8 8;" parent="1" source="n3GXr-EBZrWfVHXAShis-13" edge="1">
          <mxGeometry width="50" height="50" relative="1" as="geometry">
            <mxPoint x="380" y="950" as="sourcePoint" />
            <mxPoint x="540" y="1350" as="targetPoint" />
          </mxGeometry>
        </mxCell>
        <mxCell id="n3GXr-EBZrWfVHXAShis-16" value="" style="shape=mxgraph.mockup.containers.marginRect;rectMarginTop=10;strokeColor=#666666;strokeWidth=1;dashed=0;rounded=1;arcSize=5;recursiveResize=0;html=1;whiteSpace=wrap;" parent="1" vertex="1">
          <mxGeometry x="480" y="1360" width="280" height="360" as="geometry" />
        </mxCell>
        <mxCell id="n3GXr-EBZrWfVHXAShis-17" value="Suggestion 4, Map Selection" style="shape=rect;strokeColor=none;fillColor=#008cff;strokeWidth=1;dashed=0;rounded=1;arcSize=20;fontColor=#ffffff;fontSize=17;spacing=2;spacingTop=-2;align=left;autosize=1;spacingLeft=4;resizeWidth=0;resizeHeight=0;perimeter=none;html=1;whiteSpace=wrap;" parent="n3GXr-EBZrWfVHXAShis-16" vertex="1">
          <mxGeometry x="5" width="240" height="30" as="geometry" />
        </mxCell>
        <mxCell id="n3GXr-EBZrWfVHXAShis-18" value="Customs" style="rounded=1;whiteSpace=wrap;html=1;" parent="n3GXr-EBZrWfVHXAShis-16" vertex="1">
          <mxGeometry x="10" y="40" width="100" height="40" as="geometry" />
        </mxCell>
        <mxCell id="n3GXr-EBZrWfVHXAShis-19" value="Factory" style="rounded=1;whiteSpace=wrap;html=1;" parent="n3GXr-EBZrWfVHXAShis-16" vertex="1">
          <mxGeometry x="10" y="90" width="100" height="40" as="geometry" />
        </mxCell>
        <mxCell id="n3GXr-EBZrWfVHXAShis-20" value="Interchange" style="rounded=1;whiteSpace=wrap;html=1;" parent="n3GXr-EBZrWfVHXAShis-16" vertex="1">
          <mxGeometry x="10" y="140" width="100" height="40" as="geometry" />
        </mxCell>
        <mxCell id="n3GXr-EBZrWfVHXAShis-21" value="..." style="rounded=1;whiteSpace=wrap;html=1;" parent="n3GXr-EBZrWfVHXAShis-16" vertex="1">
          <mxGeometry x="10" y="190" width="100" height="40" as="geometry" />
        </mxCell>
        <mxCell id="n3GXr-EBZrWfVHXAShis-22" value="- include num of active quests on each map.&lt;div&gt;- Sort, so that the maps with the most active quests is listed first.&lt;/div&gt;" style="text;html=1;align=left;verticalAlign=top;whiteSpace=wrap;rounded=0;" parent="n3GXr-EBZrWfVHXAShis-16" vertex="1">
          <mxGeometry x="10" y="300" width="260" height="50" as="geometry" />
        </mxCell>
        <mxCell id="n3GXr-EBZrWfVHXAShis-23" value="" style="endArrow=classic;html=1;rounded=0;exitX=0;exitY=0.5;exitDx=0;exitDy=0;dashed=1;dashPattern=8 8;" parent="1" source="n3GXr-EBZrWfVHXAShis-21" edge="1">
          <mxGeometry width="50" height="50" relative="1" as="geometry">
            <mxPoint x="440" y="1520" as="sourcePoint" />
            <mxPoint x="280" y="1290" as="targetPoint" />
          </mxGeometry>
        </mxCell>
      </root>
    </mxGraphModel>
  </diagram>
  <diagram id="qEOWgbsbCGqFR-9eyppd" name="Packet Solution 1">
    <mxGraphModel dx="1830" dy="1647" grid="1" gridSize="10" guides="1" tooltips="1" connect="1" arrows="1" fold="1" page="1" pageScale="1" pageWidth="827" pageHeight="1169" math="0" shadow="0">
      <root>
        <mxCell id="0" />
        <mxCell id="1" parent="0" />
        <mxCell id="-HSBXxlQh0m9U0ySQ-6H-37" value="" style="shape=mxgraph.mockup.containers.marginRect;rectMarginTop=10;strokeColor=#666666;strokeWidth=1;dashed=0;rounded=1;arcSize=5;recursiveResize=0;html=1;whiteSpace=wrap;" vertex="1" parent="1">
          <mxGeometry x="40" y="40" width="320" height="400" as="geometry" />
        </mxCell>
        <mxCell id="-HSBXxlQh0m9U0ySQ-6H-38" value="Menu" style="shape=rect;strokeColor=none;fillColor=#008CFF;strokeWidth=1;dashed=0;rounded=1;arcSize=20;fontColor=#ffffff;fontSize=17;spacing=2;spacingTop=-2;align=left;autosize=1;spacingLeft=4;resizeWidth=0;resizeHeight=0;perimeter=none;html=1;whiteSpace=wrap;" vertex="1" parent="-HSBXxlQh0m9U0ySQ-6H-37">
          <mxGeometry x="5" width="70" height="30" as="geometry" />
        </mxCell>
        <mxCell id="-HSBXxlQh0m9U0ySQ-6H-69" value="" style="shape=ellipse;dashed=0;strokeColor=none;shadow=1;fontSize=13;align=center;verticalAlign=top;labelPosition=center;verticalLabelPosition=bottom;html=1;aspect=fixed;fillColor=#008CFF;" vertex="1" parent="-HSBXxlQh0m9U0ySQ-6H-37">
          <mxGeometry x="12" y="60" width="56" height="56" as="geometry" />
        </mxCell>
        <mxCell id="-HSBXxlQh0m9U0ySQ-6H-70" value="" style="dashed=0;html=1;shape=mxgraph.gmdl.star;strokeColor=none;fillColor=#737373;shadow=0;sketch=0;html=1;labelPosition=center;verticalLabelPosition=bottom;align=center;verticalAlign=top;" vertex="1" parent="-HSBXxlQh0m9U0ySQ-6H-69">
          <mxGeometry x="18" y="18" width="20" height="20" as="geometry" />
        </mxCell>
        <mxCell id="-HSBXxlQh0m9U0ySQ-6H-71" value="" style="shape=ellipse;dashed=0;strokeColor=none;shadow=1;fontSize=13;align=center;verticalAlign=top;labelPosition=center;verticalLabelPosition=bottom;html=1;aspect=fixed;fillColor=#008CFF;" vertex="1" parent="-HSBXxlQh0m9U0ySQ-6H-37">
          <mxGeometry x="12" y="130" width="56" height="56" as="geometry" />
        </mxCell>
        <mxCell id="-HSBXxlQh0m9U0ySQ-6H-72" value="" style="dashed=0;html=1;shape=mxgraph.gmdl.star;strokeColor=none;fillColor=#737373;shadow=0;sketch=0;html=1;labelPosition=center;verticalLabelPosition=bottom;align=center;verticalAlign=top;" vertex="1" parent="-HSBXxlQh0m9U0ySQ-6H-71">
          <mxGeometry x="18" y="18" width="20" height="20" as="geometry" />
        </mxCell>
        <mxCell id="-HSBXxlQh0m9U0ySQ-6H-73" value="Map" style="text;html=1;align=center;verticalAlign=middle;whiteSpace=wrap;rounded=0;" vertex="1" parent="-HSBXxlQh0m9U0ySQ-6H-37">
          <mxGeometry x="160" y="73" width="60" height="30" as="geometry" />
        </mxCell>
        <mxCell id="-HSBXxlQh0m9U0ySQ-6H-74" value="" style="endArrow=classic;html=1;rounded=0;exitX=0;exitY=0.5;exitDx=0;exitDy=0;" edge="1" parent="-HSBXxlQh0m9U0ySQ-6H-37" source="-HSBXxlQh0m9U0ySQ-6H-73">
          <mxGeometry width="50" height="50" relative="1" as="geometry">
            <mxPoint x="90" y="220" as="sourcePoint" />
            <mxPoint x="90" y="88" as="targetPoint" />
          </mxGeometry>
        </mxCell>
        <mxCell id="-HSBXxlQh0m9U0ySQ-6H-75" value="Search" style="text;html=1;align=center;verticalAlign=middle;whiteSpace=wrap;rounded=0;" vertex="1" parent="-HSBXxlQh0m9U0ySQ-6H-37">
          <mxGeometry x="160" y="143" width="60" height="30" as="geometry" />
        </mxCell>
        <mxCell id="-HSBXxlQh0m9U0ySQ-6H-76" value="" style="endArrow=classic;html=1;rounded=0;exitX=0;exitY=0.5;exitDx=0;exitDy=0;" edge="1" parent="-HSBXxlQh0m9U0ySQ-6H-37">
          <mxGeometry width="50" height="50" relative="1" as="geometry">
            <mxPoint x="160" y="157.76" as="sourcePoint" />
            <mxPoint x="90" y="157.76" as="targetPoint" />
          </mxGeometry>
        </mxCell>
        <mxCell id="-HSBXxlQh0m9U0ySQ-6H-77" value="" style="shape=ellipse;dashed=0;strokeColor=none;shadow=1;fontSize=13;align=center;verticalAlign=top;labelPosition=center;verticalLabelPosition=bottom;html=1;aspect=fixed;fillColor=#008CFF;" vertex="1" parent="-HSBXxlQh0m9U0ySQ-6H-37">
          <mxGeometry x="12" y="200" width="56" height="56" as="geometry" />
        </mxCell>
        <mxCell id="-HSBXxlQh0m9U0ySQ-6H-78" value="" style="dashed=0;html=1;shape=mxgraph.gmdl.star;strokeColor=none;fillColor=#737373;shadow=0;sketch=0;html=1;labelPosition=center;verticalLabelPosition=bottom;align=center;verticalAlign=top;" vertex="1" parent="-HSBXxlQh0m9U0ySQ-6H-77">
          <mxGeometry x="18" y="18" width="20" height="20" as="geometry" />
        </mxCell>
        <mxCell id="-HSBXxlQh0m9U0ySQ-6H-79" value="Browser" style="text;html=1;align=center;verticalAlign=middle;whiteSpace=wrap;rounded=0;" vertex="1" parent="-HSBXxlQh0m9U0ySQ-6H-37">
          <mxGeometry x="160" y="213" width="60" height="30" as="geometry" />
        </mxCell>
        <mxCell id="-HSBXxlQh0m9U0ySQ-6H-80" value="" style="endArrow=classic;html=1;rounded=0;exitX=0;exitY=0.5;exitDx=0;exitDy=0;" edge="1" parent="-HSBXxlQh0m9U0ySQ-6H-37">
          <mxGeometry width="50" height="50" relative="1" as="geometry">
            <mxPoint x="160" y="227.76" as="sourcePoint" />
            <mxPoint x="90" y="227.76" as="targetPoint" />
          </mxGeometry>
        </mxCell>
        <mxCell id="-HSBXxlQh0m9U0ySQ-6H-81" value="" style="shape=ellipse;dashed=0;strokeColor=none;shadow=1;fontSize=13;align=center;verticalAlign=top;labelPosition=center;verticalLabelPosition=bottom;html=1;aspect=fixed;fillColor=#008CFF;" vertex="1" parent="-HSBXxlQh0m9U0ySQ-6H-37">
          <mxGeometry x="12" y="270" width="56" height="56" as="geometry" />
        </mxCell>
        <mxCell id="-HSBXxlQh0m9U0ySQ-6H-82" value="" style="dashed=0;html=1;shape=mxgraph.gmdl.star;strokeColor=none;fillColor=#737373;shadow=0;sketch=0;html=1;labelPosition=center;verticalLabelPosition=bottom;align=center;verticalAlign=top;" vertex="1" parent="-HSBXxlQh0m9U0ySQ-6H-81">
          <mxGeometry x="18" y="18" width="20" height="20" as="geometry" />
        </mxCell>
        <mxCell id="-HSBXxlQh0m9U0ySQ-6H-83" value="Settings" style="text;html=1;align=center;verticalAlign=middle;whiteSpace=wrap;rounded=0;" vertex="1" parent="-HSBXxlQh0m9U0ySQ-6H-37">
          <mxGeometry x="160" y="283" width="60" height="30" as="geometry" />
        </mxCell>
        <mxCell id="-HSBXxlQh0m9U0ySQ-6H-84" value="" style="endArrow=classic;html=1;rounded=0;exitX=0;exitY=0.5;exitDx=0;exitDy=0;" edge="1" parent="-HSBXxlQh0m9U0ySQ-6H-37">
          <mxGeometry width="50" height="50" relative="1" as="geometry">
            <mxPoint x="160" y="297.76" as="sourcePoint" />
            <mxPoint x="90" y="297.76" as="targetPoint" />
          </mxGeometry>
        </mxCell>
        <mxCell id="-HSBXxlQh0m9U0ySQ-6H-85" value="" style="shape=mxgraph.mockup.containers.marginRect;rectMarginTop=10;strokeColor=#666666;strokeWidth=1;dashed=0;rounded=1;arcSize=5;recursiveResize=0;html=1;whiteSpace=wrap;" vertex="1" parent="1">
          <mxGeometry x="440" y="40" width="760" height="490" as="geometry" />
        </mxCell>
        <mxCell id="-HSBXxlQh0m9U0ySQ-6H-86" value="Map" style="shape=rect;strokeColor=none;fillColor=#008cff;strokeWidth=1;dashed=0;rounded=1;arcSize=20;fontColor=#ffffff;fontSize=17;spacing=2;spacingTop=-2;align=left;autosize=1;spacingLeft=4;resizeWidth=0;resizeHeight=0;perimeter=none;html=1;whiteSpace=wrap;" vertex="1" parent="-HSBXxlQh0m9U0ySQ-6H-85">
          <mxGeometry x="5" width="60" height="30" as="geometry" />
        </mxCell>
        <mxCell id="-HSBXxlQh0m9U0ySQ-6H-98" value="Image" style="rounded=0;whiteSpace=wrap;html=1;" vertex="1" parent="-HSBXxlQh0m9U0ySQ-6H-85">
          <mxGeometry x="20" y="50" width="710" height="410" as="geometry" />
        </mxCell>
        <mxCell id="-HSBXxlQh0m9U0ySQ-6H-165" value="" style="html=1;dashed=0;aspect=fixed;verticalLabelPosition=bottom;verticalAlign=top;align=center;shape=mxgraph.gmdl.x;strokeColor=#737373;fillColor=#737373;shadow=0;strokeWidth=2;sketch=0;" vertex="1" parent="-HSBXxlQh0m9U0ySQ-6H-85">
          <mxGeometry x="700" y="60" width="16" height="16" as="geometry" />
        </mxCell>
        <mxCell id="-HSBXxlQh0m9U0ySQ-6H-99" value="" style="shape=mxgraph.mockup.containers.marginRect;rectMarginTop=10;strokeColor=#666666;strokeWidth=1;dashed=0;rounded=1;arcSize=5;recursiveResize=0;html=1;whiteSpace=wrap;" vertex="1" parent="1">
          <mxGeometry x="35" y="840" width="330" height="480" as="geometry" />
        </mxCell>
        <mxCell id="-HSBXxlQh0m9U0ySQ-6H-100" value="Search" style="shape=rect;strokeColor=none;fillColor=#008cff;strokeWidth=1;dashed=0;rounded=1;arcSize=20;fontColor=#ffffff;fontSize=17;spacing=2;spacingTop=-2;align=left;autosize=1;spacingLeft=4;resizeWidth=0;resizeHeight=0;perimeter=none;html=1;whiteSpace=wrap;" vertex="1" parent="-HSBXxlQh0m9U0ySQ-6H-99">
          <mxGeometry x="5" width="80" height="30" as="geometry" />
        </mxCell>
        <mxCell id="-HSBXxlQh0m9U0ySQ-6H-124" value="" style="rounded=0;whiteSpace=wrap;html=1;" vertex="1" parent="-HSBXxlQh0m9U0ySQ-6H-99">
          <mxGeometry x="20" y="50" width="290" height="405" as="geometry" />
        </mxCell>
        <mxCell id="-HSBXxlQh0m9U0ySQ-6H-103" value="" style="swimlane;shape=mxgraph.bootstrap.anchor;strokeColor=#666666;fillColor=#ffffff;fontColor=#666666;fontStyle=0;childLayout=stackLayout;horizontal=0;startSize=0;horizontalStack=1;resizeParent=1;resizeParentMax=0;resizeLast=0;collapsible=0;marginBottom=0;whiteSpace=wrap;html=1;" vertex="1" parent="-HSBXxlQh0m9U0ySQ-6H-99">
          <mxGeometry x="40" y="105" width="250" height="50" as="geometry" />
        </mxCell>
        <mxCell id="-HSBXxlQh0m9U0ySQ-6H-104" value="Quests" style="text;strokeColor=#008CFF;align=center;verticalAlign=middle;spacingLeft=10;spacingRight=10;overflow=hidden;points=[[0,0.5],[1,0.5]];portConstraint=eastwest;rotatable=0;whiteSpace=wrap;html=1;shape=mxgraph.mockup.leftButton;rSize=10;fillColor=#008CFF;fontColor=#ffffff;fontSize=17;fontStyle=1;" vertex="1" parent="-HSBXxlQh0m9U0ySQ-6H-103">
          <mxGeometry width="125" height="50" as="geometry" />
        </mxCell>
        <mxCell id="-HSBXxlQh0m9U0ySQ-6H-107" value="Keys" style="text;strokeColor=inherit;align=center;verticalAlign=middle;spacingLeft=10;spacingRight=10;overflow=hidden;points=[[0,0.5],[1,0.5]];portConstraint=eastwest;rotatable=0;whiteSpace=wrap;html=1;shape=mxgraph.mockup.rightButton;rSize=10;fillColor=inherit;fontColor=inherit;fontSize=17;fontStyle=1;" vertex="1" parent="-HSBXxlQh0m9U0ySQ-6H-103">
          <mxGeometry x="125" width="125" height="50" as="geometry" />
        </mxCell>
        <mxCell id="-HSBXxlQh0m9U0ySQ-6H-122" value="Search" style="strokeWidth=1;shadow=0;dashed=0;align=center;html=1;shape=mxgraph.mockup.forms.searchBox;strokeColor=#999999;mainText=;strokeColor2=#008cff;fontColor=#666666;fontSize=17;align=left;spacingLeft=3;whiteSpace=wrap;" vertex="1" parent="-HSBXxlQh0m9U0ySQ-6H-99">
          <mxGeometry x="50" y="175" width="230" height="30" as="geometry" />
        </mxCell>
        <mxCell id="-HSBXxlQh0m9U0ySQ-6H-123" value="Quest X&lt;br&gt;Trader" style="rounded=1;whiteSpace=wrap;html=1;" vertex="1" parent="-HSBXxlQh0m9U0ySQ-6H-99">
          <mxGeometry x="50" y="225" width="230" height="60" as="geometry" />
        </mxCell>
        <mxCell id="-HSBXxlQh0m9U0ySQ-6H-125" value="" style="html=1;dashed=0;aspect=fixed;verticalLabelPosition=bottom;verticalAlign=top;align=center;shape=mxgraph.gmdl.x;strokeColor=#737373;fillColor=#737373;shadow=0;strokeWidth=2;sketch=0;" vertex="1" parent="-HSBXxlQh0m9U0ySQ-6H-99">
          <mxGeometry x="280" y="65" width="16" height="16" as="geometry" />
        </mxCell>
        <mxCell id="-HSBXxlQh0m9U0ySQ-6H-127" value="" style="dashed=0;labelPosition=right;align=left;shape=mxgraph.gmdl.switch;aspect=fixed;switchState=off;strokeColor=none;fillColor=#0E9D57;sketch=0;html=1;" vertex="1" parent="-HSBXxlQh0m9U0ySQ-6H-99">
          <mxGeometry x="230" y="245" width="36" height="20" as="geometry" />
        </mxCell>
        <mxCell id="-HSBXxlQh0m9U0ySQ-6H-128" value="Quest X&lt;br&gt;Trader" style="rounded=1;whiteSpace=wrap;html=1;" vertex="1" parent="-HSBXxlQh0m9U0ySQ-6H-99">
          <mxGeometry x="50" y="300" width="230" height="60" as="geometry" />
        </mxCell>
        <mxCell id="-HSBXxlQh0m9U0ySQ-6H-129" value="" style="dashed=0;labelPosition=right;align=left;shape=mxgraph.gmdl.switch;aspect=fixed;switchState=on;strokeColor=none;fillColor=#0E9D57;sketch=0;html=1;" vertex="1" parent="-HSBXxlQh0m9U0ySQ-6H-99">
          <mxGeometry x="230" y="325" width="36" height="20" as="geometry" />
        </mxCell>
        <mxCell id="-HSBXxlQh0m9U0ySQ-6H-130" value="Quest X&lt;br&gt;Trader" style="rounded=1;whiteSpace=wrap;html=1;" vertex="1" parent="-HSBXxlQh0m9U0ySQ-6H-99">
          <mxGeometry x="50" y="375" width="230" height="60" as="geometry" />
        </mxCell>
        <mxCell id="-HSBXxlQh0m9U0ySQ-6H-131" value="" style="dashed=0;labelPosition=right;align=left;shape=mxgraph.gmdl.switch;aspect=fixed;switchState=off;strokeColor=none;fillColor=#0E9D57;sketch=0;html=1;" vertex="1" parent="-HSBXxlQh0m9U0ySQ-6H-99">
          <mxGeometry x="230" y="395" width="36" height="20" as="geometry" />
        </mxCell>
        <mxCell id="-HSBXxlQh0m9U0ySQ-6H-158" value="" style="verticalLabelPosition=bottom;shadow=0;dashed=0;align=center;html=1;verticalAlign=top;strokeWidth=1;shape=mxgraph.mockup.misc.help_icon;" vertex="1" parent="-HSBXxlQh0m9U0ySQ-6H-99">
          <mxGeometry x="60" y="239" width="32" height="32" as="geometry" />
        </mxCell>
        <mxCell id="-HSBXxlQh0m9U0ySQ-6H-159" value="" style="verticalLabelPosition=bottom;shadow=0;dashed=0;align=center;html=1;verticalAlign=top;strokeWidth=1;shape=mxgraph.mockup.misc.help_icon;" vertex="1" parent="-HSBXxlQh0m9U0ySQ-6H-99">
          <mxGeometry x="60" y="313" width="32" height="32" as="geometry" />
        </mxCell>
        <mxCell id="-HSBXxlQh0m9U0ySQ-6H-160" value="" style="verticalLabelPosition=bottom;shadow=0;dashed=0;align=center;html=1;verticalAlign=top;strokeWidth=1;shape=mxgraph.mockup.misc.help_icon;" vertex="1" parent="-HSBXxlQh0m9U0ySQ-6H-99">
          <mxGeometry x="60" y="389" width="32" height="32" as="geometry" />
        </mxCell>
        <mxCell id="-HSBXxlQh0m9U0ySQ-6H-132" value="" style="shape=mxgraph.mockup.containers.marginRect;rectMarginTop=10;strokeColor=#666666;strokeWidth=1;dashed=0;rounded=1;arcSize=5;recursiveResize=0;html=1;whiteSpace=wrap;" vertex="1" parent="1">
          <mxGeometry x="440" y="600" width="760" height="480" as="geometry" />
        </mxCell>
        <mxCell id="-HSBXxlQh0m9U0ySQ-6H-133" value="Browser" style="shape=rect;strokeColor=none;fillColor=#008cff;strokeWidth=1;dashed=0;rounded=1;arcSize=20;fontColor=#ffffff;fontSize=17;spacing=2;spacingTop=-2;align=left;autosize=1;spacingLeft=4;resizeWidth=0;resizeHeight=0;perimeter=none;html=1;whiteSpace=wrap;" vertex="1" parent="-HSBXxlQh0m9U0ySQ-6H-132">
          <mxGeometry x="5" width="90" height="30" as="geometry" />
        </mxCell>
        <mxCell id="-HSBXxlQh0m9U0ySQ-6H-134" value="Browser" style="rounded=0;whiteSpace=wrap;html=1;" vertex="1" parent="-HSBXxlQh0m9U0ySQ-6H-132">
          <mxGeometry x="20" y="50" width="710" height="410" as="geometry" />
        </mxCell>
        <mxCell id="-HSBXxlQh0m9U0ySQ-6H-166" value="" style="html=1;dashed=0;aspect=fixed;verticalLabelPosition=bottom;verticalAlign=top;align=center;shape=mxgraph.gmdl.x;strokeColor=#737373;fillColor=#737373;shadow=0;strokeWidth=2;sketch=0;" vertex="1" parent="-HSBXxlQh0m9U0ySQ-6H-132">
          <mxGeometry x="700" y="60" width="16" height="16" as="geometry" />
        </mxCell>
        <mxCell id="-HSBXxlQh0m9U0ySQ-6H-141" value="" style="shape=mxgraph.mockup.containers.marginRect;rectMarginTop=10;strokeColor=#666666;strokeWidth=1;dashed=0;rounded=1;arcSize=5;recursiveResize=0;html=1;whiteSpace=wrap;" vertex="1" parent="1">
          <mxGeometry x="440" y="1120" width="760" height="560" as="geometry" />
        </mxCell>
        <mxCell id="-HSBXxlQh0m9U0ySQ-6H-142" value="Settings" style="shape=rect;strokeColor=none;fillColor=#008cff;strokeWidth=1;dashed=0;rounded=1;arcSize=20;fontColor=#ffffff;fontSize=17;spacing=2;spacingTop=-2;align=left;autosize=1;spacingLeft=4;resizeWidth=0;resizeHeight=0;perimeter=none;html=1;whiteSpace=wrap;" vertex="1" parent="-HSBXxlQh0m9U0ySQ-6H-141">
          <mxGeometry x="5" width="90" height="30" as="geometry" />
        </mxCell>
        <mxCell id="-HSBXxlQh0m9U0ySQ-6H-143" value="" style="rounded=0;whiteSpace=wrap;html=1;" vertex="1" parent="-HSBXxlQh0m9U0ySQ-6H-141">
          <mxGeometry x="20" y="50" width="710" height="490" as="geometry" />
        </mxCell>
        <mxCell id="-HSBXxlQh0m9U0ySQ-6H-144" value="" style="endArrow=none;html=1;rounded=0;exitX=0;exitY=0.25;exitDx=0;exitDy=0;entryX=1;entryY=0.25;entryDx=0;entryDy=0;" edge="1" parent="-HSBXxlQh0m9U0ySQ-6H-141" source="-HSBXxlQh0m9U0ySQ-6H-143" target="-HSBXxlQh0m9U0ySQ-6H-143">
          <mxGeometry width="50" height="50" relative="1" as="geometry">
            <mxPoint x="140" y="130" as="sourcePoint" />
            <mxPoint x="190" y="80" as="targetPoint" />
          </mxGeometry>
        </mxCell>
        <mxCell id="-HSBXxlQh0m9U0ySQ-6H-145" value="&lt;font style=&quot;font-size: 16px;&quot;&gt;HOME&lt;/font&gt;" style="text;html=1;align=center;verticalAlign=middle;whiteSpace=wrap;rounded=0;" vertex="1" parent="-HSBXxlQh0m9U0ySQ-6H-141">
          <mxGeometry x="30" y="100" width="120" height="30" as="geometry" />
        </mxCell>
        <mxCell id="-HSBXxlQh0m9U0ySQ-6H-146" value="&lt;font style=&quot;font-size: 16px;&quot;&gt;Extractions&lt;/font&gt;" style="text;html=1;align=center;verticalAlign=middle;whiteSpace=wrap;rounded=0;" vertex="1" parent="-HSBXxlQh0m9U0ySQ-6H-141">
          <mxGeometry x="150" y="100" width="120" height="30" as="geometry" />
        </mxCell>
        <mxCell id="-HSBXxlQh0m9U0ySQ-6H-147" value="&lt;font style=&quot;font-size: 16px;&quot;&gt;Markers&lt;/font&gt;" style="text;html=1;align=center;verticalAlign=middle;whiteSpace=wrap;rounded=0;" vertex="1" parent="-HSBXxlQh0m9U0ySQ-6H-141">
          <mxGeometry x="270" y="100" width="120" height="30" as="geometry" />
        </mxCell>
        <mxCell id="-HSBXxlQh0m9U0ySQ-6H-148" value="&lt;font style=&quot;font-size: 16px;&quot;&gt;BTR&lt;/font&gt;" style="text;html=1;align=center;verticalAlign=middle;whiteSpace=wrap;rounded=0;" vertex="1" parent="-HSBXxlQh0m9U0ySQ-6H-141">
          <mxGeometry x="390" y="100" width="120" height="30" as="geometry" />
        </mxCell>
        <mxCell id="-HSBXxlQh0m9U0ySQ-6H-151" value="&lt;font style=&quot;font-size: 16px;&quot;&gt;...&lt;/font&gt;" style="text;html=1;align=center;verticalAlign=middle;whiteSpace=wrap;rounded=0;" vertex="1" parent="-HSBXxlQh0m9U0ySQ-6H-141">
          <mxGeometry x="510" y="100" width="120" height="30" as="geometry" />
        </mxCell>
        <mxCell id="-HSBXxlQh0m9U0ySQ-6H-152" value="&lt;div&gt;&lt;font style=&quot;font-size: 10px;&quot;&gt;Author&lt;/font&gt;&lt;/div&gt;&lt;font style=&quot;font-size: 10px;&quot;&gt;Version&lt;br&gt;&lt;/font&gt;EFT Version" style="text;html=1;align=right;verticalAlign=middle;whiteSpace=wrap;rounded=0;" vertex="1" parent="-HSBXxlQh0m9U0ySQ-6H-141">
          <mxGeometry x="630" y="120" width="90" height="40" as="geometry" />
        </mxCell>
        <mxCell id="-HSBXxlQh0m9U0ySQ-6H-154" value="Content" style="text;html=1;align=center;verticalAlign=middle;whiteSpace=wrap;rounded=0;" vertex="1" parent="-HSBXxlQh0m9U0ySQ-6H-141">
          <mxGeometry x="345" y="330" width="60" height="30" as="geometry" />
        </mxCell>
        <mxCell id="-HSBXxlQh0m9U0ySQ-6H-167" value="" style="html=1;dashed=0;aspect=fixed;verticalLabelPosition=bottom;verticalAlign=top;align=center;shape=mxgraph.gmdl.x;strokeColor=#737373;fillColor=#737373;shadow=0;strokeWidth=2;sketch=0;" vertex="1" parent="-HSBXxlQh0m9U0ySQ-6H-141">
          <mxGeometry x="704" y="60" width="16" height="16" as="geometry" />
        </mxCell>
        <mxCell id="-HSBXxlQh0m9U0ySQ-6H-156" value="" style="rounded=1;whiteSpace=wrap;html=1;fillColor=#f0a30a;fontColor=#000000;strokeColor=#BD7000;" vertex="1" parent="1">
          <mxGeometry x="35" y="1360" width="320" height="280" as="geometry" />
        </mxCell>
        <mxCell id="-HSBXxlQh0m9U0ySQ-6H-157" value="&lt;h1 style=&quot;margin-top: 0px;&quot;&gt;&lt;font style=&quot;font-size: 30px; color: rgb(0, 0, 0);&quot;&gt;Search&lt;/font&gt;&lt;/h1&gt;&lt;p&gt;&lt;font style=&quot;color: rgb(0, 0, 0);&quot;&gt;Searched Results will show up in a list with:&lt;br&gt;- Quest Name / Key Name.&lt;br&gt;&lt;span style=&quot;background-color: transparent;&quot;&gt;- Trader Name / Map Name.&lt;br&gt;&lt;/span&gt;&lt;span style=&quot;background-color: transparent;&quot;&gt;- Indicattors for IsActive &amp;amp; IsComplete Status.&lt;/span&gt;&lt;/font&gt;&lt;/p&gt;&lt;p&gt;&lt;span style=&quot;background-color: transparent;&quot;&gt;&lt;font style=&quot;color: rgb(0, 0, 0);&quot;&gt;When activated the key or quest icon will be shown on the map.&lt;/font&gt;&lt;/span&gt;&lt;/p&gt;&lt;p&gt;&lt;span style=&quot;background-color: transparent;&quot;&gt;&lt;font style=&quot;color: rgb(0, 0, 0);&quot;&gt;Furthermore either Quests or Keys will be inspectable, to see more information about a paticulare item.&lt;/font&gt;&lt;/span&gt;&lt;/p&gt;&lt;p&gt;&lt;font color=&quot;#000000&quot;&gt;REMARKS: Window starts small, can be resized.&lt;/font&gt;&lt;/p&gt;" style="text;html=1;whiteSpace=wrap;overflow=hidden;rounded=0;" vertex="1" parent="1">
          <mxGeometry x="55" y="1380" width="280" height="240" as="geometry" />
        </mxCell>
        <mxCell id="-HSBXxlQh0m9U0ySQ-6H-161" value="" style="rounded=1;whiteSpace=wrap;html=1;fillColor=#f0a30a;fontColor=#000000;strokeColor=#BD7000;" vertex="1" parent="1">
          <mxGeometry x="1240" y="600" width="320" height="280" as="geometry" />
        </mxCell>
        <mxCell id="-HSBXxlQh0m9U0ySQ-6H-162" value="&lt;h1 style=&quot;margin-top: 0px;&quot;&gt;&lt;font style=&quot;font-size: 30px; color: rgb(0, 0, 0);&quot;&gt;Browser&lt;/font&gt;&lt;/h1&gt;&lt;p&gt;&lt;font color=&quot;#000000&quot;&gt;The browser is still &quot;maybe&quot; feature.&lt;/font&gt;&lt;/p&gt;" style="text;html=1;whiteSpace=wrap;overflow=hidden;rounded=0;" vertex="1" parent="1">
          <mxGeometry x="1260" y="620" width="280" height="240" as="geometry" />
        </mxCell>
        <mxCell id="-HSBXxlQh0m9U0ySQ-6H-163" value="" style="rounded=1;whiteSpace=wrap;html=1;fillColor=#f0a30a;fontColor=#000000;strokeColor=#BD7000;" vertex="1" parent="1">
          <mxGeometry x="40" y="480" width="320" height="280" as="geometry" />
        </mxCell>
        <mxCell id="-HSBXxlQh0m9U0ySQ-6H-164" value="&lt;h1 style=&quot;margin-top: 0px;&quot;&gt;&lt;font style=&quot;font-size: 30px; color: rgb(0, 0, 0);&quot;&gt;Menu&lt;/font&gt;&lt;/h1&gt;&lt;p&gt;&lt;font color=&quot;#000000&quot;&gt;Map Tab (Consistent):&lt;br&gt;- Left Click: Opens/Minimizes previous map&lt;br&gt;- Right Click: Opens ContextMenu to select new map.&lt;/font&gt;&lt;/p&gt;&lt;p&gt;&lt;font color=&quot;#000000&quot;&gt;Search Tab: No remarks&lt;br&gt;Browser Tab (Consistent): No Remarks&lt;br&gt;Settings Tab: No remarks&lt;/font&gt;&lt;/p&gt;&lt;p&gt;&lt;font color=&quot;#000000&quot;&gt;Each tab will be opened in a new window. Moveable &amp;amp; Re-sizeable.&lt;/font&gt;&lt;/p&gt;&lt;p&gt;&lt;font color=&quot;#000000&quot;&gt;*Consistent meaning it will not reload or start afresh.&lt;/font&gt;&lt;/p&gt;" style="text;html=1;whiteSpace=wrap;overflow=hidden;rounded=0;" vertex="1" parent="1">
          <mxGeometry x="60" y="500" width="280" height="240" as="geometry" />
        </mxCell>
        <mxCell id="-HSBXxlQh0m9U0ySQ-6H-168" value="" style="rounded=1;whiteSpace=wrap;html=1;fillColor=#f0a30a;fontColor=#000000;strokeColor=#BD7000;" vertex="1" parent="1">
          <mxGeometry x="1240" y="40" width="320" height="280" as="geometry" />
        </mxCell>
        <mxCell id="-HSBXxlQh0m9U0ySQ-6H-169" value="&lt;h1 style=&quot;margin-top: 0px;&quot;&gt;&lt;font color=&quot;#000000&quot;&gt;&lt;span style=&quot;font-size: 30px;&quot;&gt;Map&lt;/span&gt;&lt;/font&gt;&lt;/h1&gt;&lt;p&gt;&lt;font color=&quot;#000000&quot;&gt;- No remarks&lt;/font&gt;&lt;/p&gt;" style="text;html=1;whiteSpace=wrap;overflow=hidden;rounded=0;" vertex="1" parent="1">
          <mxGeometry x="1260" y="60" width="280" height="240" as="geometry" />
        </mxCell>
        <mxCell id="-HSBXxlQh0m9U0ySQ-6H-170" value="" style="rounded=1;whiteSpace=wrap;html=1;fillColor=#f0a30a;fontColor=#000000;strokeColor=#BD7000;" vertex="1" parent="1">
          <mxGeometry x="1241" y="1120" width="320" height="280" as="geometry" />
        </mxCell>
        <mxCell id="-HSBXxlQh0m9U0ySQ-6H-171" value="&lt;h1 style=&quot;margin-top: 0px;&quot;&gt;&lt;font color=&quot;#000000&quot;&gt;&lt;span style=&quot;font-size: 30px;&quot;&gt;Settings&lt;/span&gt;&lt;/font&gt;&lt;/h1&gt;&lt;p&gt;&lt;font color=&quot;#000000&quot;&gt;- No remarks&lt;/font&gt;&lt;/p&gt;" style="text;html=1;whiteSpace=wrap;overflow=hidden;rounded=0;" vertex="1" parent="1">
          <mxGeometry x="1261" y="1140" width="280" height="240" as="geometry" />
        </mxCell>
      </root>
    </mxGraphModel>
  </diagram>
</mxfile>
